# xmcd CD database file
#
# Track frame offsets:
#	150
#	17925
#	33750
#	56700
#	78975
#	97875
#	116550
#	139950
#	161100
#	185400
#	201900
#	215475
#	231450
#	254100
#	277350
#	291825
#	309150
#	324225
#
# Disc length: 4647 seconds
#
# Revision: 1
# Processed by: cddbd v1.5.1PL2 Copyright (c) Steve Scherf et al.
# Submitted via: freeDBTagger 0.8.2.1
#
DISCID=12122512
DTITLE=Tom Jones - The Definitive 1964-2002 [CD 4)
DYEAR=2003
DGENRE=rock
TTITLE0=A Boy From Nowhere
TTITLE1=Kiss
TTITLE2=Move Closer
TTITLE3=Carrying A Torch
TTITLE4=Gimme Shelter
TTITLE5=If I Only Knew
TTITLE6=Something For Your Head
TTITLE7=A Girl Like You
TTITLE8=Medley (W. Robbie Williams)
TTITLE9=Burning Down The House (W. The Cardigans)
TTITLE10=Mama Told Me Not To Come (W. Stereophonics)
TTITLE11=Sexbomb (W. Mousse T.)
TTITLE12=Sometimes We Cry (W. Van Morrison)
TTITLE13=Motherless Child (W. Portishead)
TTITLE14=Black Betty
TTITLE15=The Letter
TTITLE16=Tom Jones International
TTITLE17=Younger Days
EXTD=
EXTT0=
EXTT1=
EXTT2=
EXTT3=
EXTT4=
EXTT5=
EXTT6=
EXTT7=
EXTT8=
EXTT9=
EXTT10=
EXTT11=
EXTT12=
EXTT13=
EXTT14=
EXTT15=
EXTT16=
EXTT17=
PLAYORDER=
